<?xml version="1.0" encoding="UTF-8" standalone="no"?>
<!-- Created with Inkscape (http://www.inkscape.org/) -->

<svg
   xmlns:dc="http://purl.org/dc/elements/1.1/"
   xmlns:cc="http://creativecommons.org/ns#"
   xmlns:rdf="http://www.w3.org/1999/02/22-rdf-syntax-ns#"
   xmlns:svg="http://www.w3.org/2000/svg"
   xmlns="http://www.w3.org/2000/svg"
   xmlns:sodipodi="http://sodipodi.sourceforge.net/DTD/sodipodi-0.dtd"
   xmlns:inkscape="http://www.inkscape.org/namespaces/inkscape"
   width="314.88861"
   height="313.53455"
   id="svg2"
   version="1.1"
   inkscape:version="0.48.2 r9819"
   sodipodi:docname="New document 1">
  <defs
     id="defs4" />
  <sodipodi:namedview
     id="base"
     pagecolor="#ffffff"
     bordercolor="#666666"
     borderopacity="1.0"
     inkscape:pageopacity="0"
     inkscape:pageshadow="2"
     inkscape:zoom="1.979899"
     inkscape:cx="84.337889"
     inkscape:cy="210.00726"
     inkscape:document-units="px"
     inkscape:current-layer="layer2"
     showgrid="false"
     fit-margin-top="0"
     fit-margin-left="0"
     fit-margin-right="0"
     fit-margin-bottom="0"
     inkscape:window-width="1920"
     inkscape:window-height="1018"
     inkscape:window-x="-8"
     inkscape:window-y="-8"
     inkscape:window-maximized="1" />
  <metadata
     id="metadata7">
    <rdf:RDF>
      <cc:Work
         rdf:about="">
        <dc:format>image/svg+xml</dc:format>
        <dc:type
           rdf:resource="http://purl.org/dc/dcmitype/StillImage" />
        <dc:title></dc:title>
      </cc:Work>
    </rdf:RDF>
  </metadata>
  <g
     inkscape:groupmode="layer"
     id="layer2"
     inkscape:label="Layer2"
     style="display:inline"
     transform="translate(-189.01404,-142.46802)">
    <path
       style="fill:#ffffff;fill-opacity:1;stroke:none"
       d="m 248.29449,455.66035 c -13.48444,-0.55313 -17.66996,-1.39803 -24.77286,-5.00065 -13.43111,-6.81233 -21.92691,-15.23313 -27.83177,-27.58606 -4.33099,-9.06038 -5.68736,-14.75589 -6.30514,-26.47568 -0.72017,-13.66229 -0.29646,-199.10613 0.4645,-203.2932 1.74023,-9.57536 6.49213,-20.4984 11.88385,-27.31699 9.32877,-11.79756 24.86235,-21.12711 37.28987,-22.39651 7.99125,-0.81625 36.32515,-1.0738 123.14719,-1.11938 59.10103,-0.031 84.99584,0.12292 88.38835,0.52547 8.89514,1.05549 19.98283,5.04034 26.68107,9.58903 4.34929,2.95354 11.71389,10.10816 15.29007,14.85412 5.5847,7.41146 9.44882,17.03247 10.69224,26.62187 0.92699,7.14908 0.89824,205.96142 -0.0307,212.27858 -1.94369,13.21797 -10.14997,28.23285 -19.40506,35.50507 -6.33769,4.97988 -12.9908,8.72911 -21.61086,12.1784 l -4.79822,1.92 -99.75257,0.0544 c -54.86391,0.0299 -104.06239,-0.12239 -109.32995,-0.33847 l 0,0 z m 179.03048,-12.08983 c 29.90024,-0.50242 29.16142,-0.41327 37.62818,-4.54038 11.4073,-5.56048 20.00122,-15.23604 24.13051,-27.16761 1.40073,-4.0474 1.55612,-5.18534 1.91206,-14.00188 0.6605,-16.36091 0.96917,-111.38547 0.51434,-158.34141 -0.4724,-48.76939 -0.37696,-47.27566 -3.51285,-54.98146 -4.70944,-11.57243 -16.34869,-23.27837 -26.17659,-26.32658 -7.28503,-2.25952 -8.42533,-2.28209 -115.30785,-2.28209 -105.34131,0 -107.80366,0.0448 -114.7473,2.08804 -4.56178,1.34234 -10.33451,5.12097 -15.32896,10.0338 -7.99246,7.86185 -12.40011,16.1224 -13.42617,25.16251 -0.3339,2.94191 -0.62076,35.93236 -0.78471,90.24741 -0.26997,89.436 0.0961,117.78748 1.6305,126.26907 2.12991,11.7735 12.1074,23.38339 25.62757,29.82044 7.64321,3.63899 7.29988,3.60117 36.21686,3.98909 38.80797,0.52061 131.43098,0.5384 161.62441,0.0311 l 0,-10e-6 z"
       id="path3777"
       inkscape:connector-curvature="0" />
    <path
       style="fill:#ffffff;fill-opacity:1;stroke:none"
       d="M 390.19845,355.30384 C 287.30872,242.56248 265.47142,218.89102 263.75252,218.23749 c -0.66824,-0.25406 -5.84448,-0.60595 -11.50276,-0.78197 l -10.28778,-0.32004 0,-11.03147 0,-11.03148 100.0051,0 100.0051,0 0,11.11167 0,11.11168 -6.9448,0.0339 c -45.52386,0.22228 -132.19286,1.0591 -133.88279,1.29269 -1.20129,0.16605 -2.30761,0.6236 -2.45849,1.01678 -0.33772,0.8801 3.85987,6.37778 9.80051,12.83593 23.47955,25.52494 114.1837,124.9395 122.6164,134.39137 10.20625,11.43977 10.12265,11.3236 9.18187,12.75942 -0.65777,1.00389 -11.86206,11.2805 -14.47855,13.27978 -0.63434,0.4847 -6.56172,-5.77461 -35.60788,-37.60192 l 0,0 z"
       id="path3779"
       inkscape:connector-curvature="0" />
  </g>
  <g
     inkscape:label="Layer 1"
     inkscape:groupmode="layer"
     id="layer1"
     transform="translate(-189.01404,-142.46802)" />
</svg>
